# xmcd
#
# Track frame offsets: 
#        150
#        9128
#        23945
#        40639
#        57351
#        78710
#        92287
#        124931
#        142752
#        160934
#        185145
#        202467
#        228379
#        242433
#        249374
#
# Disc length: 3459 seconds
#
# Revision: 0
# Processed by: cddbd v1.5.1PL2 Copyright (c) Steve Scherf et al.
# Submitted via: ExactAudioCopy v0.95b3
#
DISCID=bd0d810f
DTITLE=Scott Holt - Revelator
DYEAR=2005
DGENRE=Blues
TTITLE0=Sunday
TTITLE1=Computer Baby
TTITLE2=Cut You Loose
TTITLE3=Bad Way Baby
TTITLE4=Power of Your Love
TTITLE5=I've Been Searching
TTITLE6=Civil War
TTITLE7=Give Up Drinkin'
TTITLE8=Price I Pay
TTITLE9=Another Rainy Day
TTITLE10=Bout' To Make Me Leave Home
TTITLE11=Ginger Snaps
TTITLE12=I Know A Little
TTITLE13=Sunday (Reprise)
TTITLE14=Shorty
EXTD=
EXTT0=
EXTT1=
EXTT2=
EXTT3=
EXTT4=
EXTT5=
EXTT6=
EXTT7=
EXTT8=
EXTT9=
EXTT10=
EXTT11=
EXTT12=
EXTT13=
EXTT14=
PLAYORDER=
